<?xml version="1.0" encoding="UTF-8"?>
<svg width="1315px" height="1283px" viewBox="0 0 1315 1283" version="1.1" xmlns="http://www.w3.org/2000/svg" xmlns:xlink="http://www.w3.org/1999/xlink">
    <!-- Generator: Sketch 61 (89581) - https://sketch.com -->
    <title>vite-react-native</title>
    <desc>Created with Sketch.</desc>
    <defs>
        <filter x="-16.9%" y="-18.9%" width="133.7%" height="137.8%" filterUnits="objectBoundingBox" id="filter-1">
            <feGaussianBlur stdDeviation="50" in="SourceGraphic"></feGaussianBlur>
        </filter>
        <filter x="-16.8%" y="-18.8%" width="133.6%" height="137.7%" filterUnits="objectBoundingBox" id="filter-2">
            <feGaussianBlur stdDeviation="50" in="SourceGraphic"></feGaussianBlur>
        </filter>
        <filter x="-17.4%" y="-19.6%" width="134.9%" height="139.1%" filterUnits="objectBoundingBox" id="filter-3">
            <feGaussianBlur stdDeviation="50" in="SourceGraphic"></feGaussianBlur>
        </filter>
        <linearGradient x1="95.4382366%" y1="30.1660409%" x2="11.3665357%" y2="51.17358%" id="linearGradient-4">
            <stop stop-color="#B757FE" offset="0%"></stop>
            <stop stop-color="#61DAFB" offset="100%"></stop>
        </linearGradient>
        <path d="M499.588437,108.824868 C596.671063,18.7347418 692.161171,-21.5798776 749.327327,11.4295543 C762.745465,19.1877316 773.653107,30.7437157 782.199557,45.5415612 L782.199557,45.5415612 L782.375954,45.4397532 C810.355404,93.8850806 812.762114,177.055156 790.174691,275.590233 C887.184144,305.099534 958.392664,348.560392 986.364968,397.009845 L986.364968,397.009845 L986.086828,396.935488 C994.531535,411.557169 999.0889,426.778238 998.999155,442.097653 C999.114565,508.269019 916.36948,571.058379 789.530201,610.440486 C819.326373,739.812652 806.400935,842.860125 749.07693,875.956155 C691.929305,908.950351 596.388195,868.95201 499.615505,779.175132 C402.532879,869.265258 307.042771,909.579878 249.876615,876.570446 C236.458477,868.812268 225.550836,857.256284 217.004385,842.458439 C189.024934,794.013112 186.618225,710.843036 209.205648,612.307959 C112.196194,582.798658 40.987674,539.337801 13.0153692,490.888348 C4.47110156,476.089242 -0.0884445828,460.869432 0.0013004612,445.550017 C-0.114109697,379.378652 82.6309753,316.589291 209.470254,277.207184 C179.674082,147.835018 192.59952,44.7875457 249.923526,11.6915156 C307.07115,-21.3026806 402.435864,18.7974679 499.588437,108.824868 Z M499.714225,156.425102 C416.359907,79.2281879 334.521397,44.862577 285.457981,73.1893535 C236.243135,101.603558 225.110257,190.011572 250.636362,300.987173 C141.752713,334.820231 70.7072605,388.717526 70.7814694,445.485083 C70.6986862,458.627455 74.6065263,471.68263 81.9346959,484.375392 C105.925727,525.929077 167.029199,563.186871 250.283401,588.466106 C230.85913,673.006619 232.893626,744.356301 256.890793,785.906444 C264.220836,798.598124 273.578758,808.507764 285.092918,815.15837 C334.147454,843.455288 416.123791,808.834011 499.485714,731.510341 C582.514063,808.492479 664.504017,842.770684 713.567433,814.443907 C762.782279,786.029702 773.915157,697.621689 748.389051,586.646088 C857.272701,552.813029 928.318153,498.915735 928.243944,442.148177 C928.326728,429.005806 924.420761,415.949549 917.177979,403.40896 L917.416685,403.472646 C893.425654,361.918961 832.322183,324.661167 749.067981,299.381931 C768.492252,214.841418 766.457756,143.491737 742.460589,101.941594 L742.309146,102.029 C734.979102,89.3373195 725.621181,79.4276791 714.10702,72.7770733 C665.052485,44.4801558 583.076148,79.1014326 499.714225,156.425102 Z" id="path-5"></path>
        <filter x="-89.9%" y="-93.1%" width="279.9%" height="302.4%" filterUnits="objectBoundingBox" id="filter-6">
            <feMorphology radius="1.5" operator="dilate" in="SourceAlpha" result="shadowSpreadOuter1"></feMorphology>
            <feOffset dx="0" dy="72" in="shadowSpreadOuter1" result="shadowOffsetOuter1"></feOffset>
            <feGaussianBlur stdDeviation="287" in="shadowOffsetOuter1" result="shadowBlurOuter1"></feGaussianBlur>
            <feComposite in="shadowBlurOuter1" in2="SourceAlpha" operator="out" result="shadowBlurOuter1"></feComposite>
            <feColorMatrix values="0 0 0 0 0   0 0 0 0 0   0 0 0 0 0  0 0 0 0.0824683129 0" type="matrix" in="shadowBlurOuter1"></feColorMatrix>
        </filter>
        <linearGradient x1="50%" y1="0%" x2="50%" y2="100%" id="linearGradient-7">
            <stop stop-color="#FFF889" offset="0%"></stop>
            <stop stop-color="#F5D300" offset="100%"></stop>
        </linearGradient>
    </defs>
    <g id="vite-react-native" stroke="none" stroke-width="1" fill="none" fill-rule="evenodd">
        <g transform="translate(14.000000, -60.000000)" fill-rule="nonzero">
            <path d="M825.157648,570.480427 C851.2932,454.899852 839.692822,362.947729 788.538224,333.513624 C776.747284,326.609305 762.960437,323.339723 747.903364,323.341345 L747.899003,363.866252 C756.243886,363.865352 710.347045,363.688572 748.080433,363.684506 L748.084794,323.1596 C698.196901,323.1596 632.885282,358.790317 566.845204,420.584286 C500.818386,359.168002 435.514393,323.920189 385.626501,323.925566 L446.370327,511.401648 C483.922304,511.397601 438.025424,511.584274 446.370307,511.583374 L385.626481,324.107292 C370.387998,324.108934 356.600447,327.381488 344.626609,334.288368 C293.647086,363.73348 282.208347,455.50636 308.500474,570.717833 C195.659377,605.621392 122.175778,661.419203 122.175778,720.298439 C122.175778,779.359401 195.997479,835.323063 309.193907,870.020537 C283.058355,985.601112 294.658733,1077.55324 345.813331,1106.98734 C357.604271,1113.89166 371.391119,1117.1596 386.629602,1117.1596 C436.517495,1117.1596 501.829114,1081.52888 567.869191,1019.73491 C633.89601,1081.1512 699.200002,1116.39901 749.087895,1116.39363 C764.326378,1116.39199 778.11393,1113.11944 790.087767,1106.21256 C841.067291,1076.76745 852.506029,984.994565 826.213902,869.783092 C938.692159,835.061298 1012.17578,779.081761 1012.17578,720.202525 C1012.17578,661.141563 938.354076,605.177901 825.157648,570.480427 Z" id="Path" fill-opacity="0.639641608" fill="#61DAFB" opacity="0.226609003" filter="url(#filter-1)" transform="translate(567.175778, 720.159600) rotate(-300.000000) translate(-567.175778, -720.159600) "></path>
            <path d="M981.46152,652.103401 C1007.6558,536.231692 996.029358,444.047951 944.759806,414.539705 C932.942369,407.617995 919.12454,404.340176 904.033631,404.341803 L904.02926,444.968787 C912.392897,444.967886 866.392916,444.790661 904.211098,444.786584 L904.215469,404.1596 C854.215469,404.1596 788.757082,439.880067 722.5686,501.829689 C656.393406,440.258703 590.942663,404.922105 540.942663,404.927495 L601.822992,592.87581 C639.459356,592.871752 593.459336,593.058895 601.822972,593.057993 L540.942643,405.109679 C525.669916,405.111325 511.851382,408.392123 499.850637,415.3164 C448.756553,444.835681 437.292109,536.839727 463.643319,652.341405 C350.548647,687.332883 276.899916,743.271242 276.899916,802.298789 C276.899916,861.508519 350.887509,917.613148 464.338311,952.39802 C438.144027,1068.26973 449.770473,1160.45347 501.040025,1189.96172 C512.857462,1196.88343 526.675291,1200.1596 541.948018,1200.1596 C591.948018,1200.1596 657.406405,1164.43913 723.594888,1102.48951 C789.770081,1164.0605 855.220824,1199.39709 905.220824,1199.3917 C920.493551,1199.39006 934.312086,1196.10926 946.312831,1189.18498 C997.406915,1159.6657 1008.87136,1067.66166 982.520148,952.159978 C1095.25116,917.350723 1168.89992,861.230179 1168.89992,802.202633 C1168.89992,742.992903 1094.91232,686.888274 981.46152,652.103401 Z" id="Path-Copy-2" fill-opacity="0.687035621" fill="#9B52FF" opacity="0.226609003" filter="url(#filter-2)" transform="translate(722.899916, 802.159600) rotate(-300.000000) translate(-722.899916, -802.159600) "></path>
            <path d="M885.820152,419.987018 C911.086597,308.301087 899.871975,219.447414 850.418462,191.005131 C839.019615,184.333463 825.691232,181.174053 811.134864,181.175621 L811.130648,220.334986 C819.198033,220.334117 774.827436,220.163294 811.306045,220.159365 L811.310261,181 C763.08133,181 699.94157,215.430093 636.097576,275.141831 C572.2664,215.795052 509.134013,181.734962 460.905082,181.740157 L519.628946,362.89898 C555.932178,362.895069 511.561542,363.075452 519.628927,363.074583 L460.905063,181.91576 C446.173317,181.917347 432.844254,185.079628 421.268592,191.753771 C371.984332,220.20669 360.925975,308.88716 386.343789,420.216426 C277.255087,453.943864 206.215097,507.861493 206.215097,564.756713 C206.215097,621.827536 277.581947,675.905427 387.014165,709.433722 C361.747719,821.119654 372.962341,909.973326 422.415854,938.415609 C433.814701,945.087277 447.143084,948.245101 461.87483,948.245101 C510.10376,948.245101 573.243521,913.815007 637.087515,854.103269 C700.918691,913.450048 764.051078,947.510138 812.280009,947.504943 C827.011755,947.503356 840.340818,944.341074 851.91648,937.666931 C901.20074,909.214012 912.259097,820.533543 886.841283,709.204276 C995.57921,675.652479 1066.61922,621.559248 1066.61922,564.664027 C1066.61922,507.593204 995.252369,453.515313 885.820152,419.987018 Z" id="Path-Copy-2" fill-opacity="0.72748" fill="#FAE951" opacity="0.226609003" filter="url(#filter-3)" transform="translate(636.417158, 564.622550) rotate(-300.000000) translate(-636.417158, -564.622550) "></path>
            <g id="vrn" transform="translate(144.037852, 215.915479)">
                <g id="Shape">
                    <use fill="black" fill-opacity="1" filter="url(#filter-6)" xlink:href="#path-5"></use>
                    <use stroke="#B7A1FF" stroke-width="3" fill="url(#linearGradient-4)" xlink:href="#path-5"></use>
                </g>
                <path d="M390.202349,462.390192 L400.423109,288.931871 C400.67477,284.730878 403.729669,281.230108 407.84957,280.425431 L576.879971,247.173542 C580.031957,246.55225 583.278311,247.622704 585.446997,249.996794 C587.612504,252.367405 588.391626,255.696197 587.504833,258.784863 L555.898357,368.801444 C555.588258,369.88436 555.860927,371.051206 556.616825,371.881048 C557.369561,372.707419 558.493298,373.08105 559.585814,372.869716 L608.022904,363.504548 C611.475637,362.826835 615.010723,364.180836 617.133393,366.991656 C619.252919,369.798314 619.595477,373.568923 618.02011,376.707214 L480.197569,652.767768 L480.108224,652.906295 L477.649939,656.716302 C476.010944,659.391712 473.097245,661.016498 469.979475,661 C464.225577,661 459.601544,655.941145 460.853512,649.881399 L483.06807,541.938037 C483.298762,540.819546 482.925837,539.662267 482.088597,538.893383 C481.254892,538.127744 480.083641,537.859847 479.009242,538.185069 L449.941047,547.041844 C446.832309,547.992733 443.454353,547.230046 441.052486,545.036144 C438.654161,542.845477 437.583389,539.551684 438.232257,536.365927 L452.232138,467.633263 C452.456448,466.548867 452.113531,465.425009 451.324744,464.654683 C450.539242,463.887564 449.42025,463.576967 448.341447,463.832874 L401.271948,474.748053 C398.444172,475.400134 395.475689,474.677756 393.260985,472.79954 C391.049317,470.923897 389.847571,468.114707 390.015521,465.216627 L390.179318,462.390192 L390.202349,462.390192 Z" id="Path-Copy" stroke="#BEA400" stroke-width="6" fill="url(#linearGradient-7)"></path>
            </g>
        </g>
    </g>
</svg>