<?xml version="1.0" encoding="UTF-8"?>
<svg width="174px" height="17px" viewBox="0 0 174 17" version="1.1" xmlns="http://www.w3.org/2000/svg" xmlns:xlink="http://www.w3.org/1999/xlink">
    <title>words</title>
    <g id="Page-1" stroke="none" stroke-width="1" fill="none" fill-rule="evenodd">
        <g id="Artboard-Copy-8" transform="translate(-159, -144)" fill="#FFFFFF" fill-rule="nonzero">
            <g id="words" transform="translate(159, 144)">
                <path d="M0,17 L10.0807007,17 L12.7044447,14.3951613 L12.7044447,9.59677419 L3.31420296,9.59677419 C3.31420296,8.8016129 3.92180683,8.22580645 4.72273921,8.22580645 L12.7044447,8.22580645 L12.7044447,4.93548387 L2.62374401,4.93548387 L0,7.54032258 L0,12.3387097 L9.39024171,12.3387097 C9.39024171,13.133871 8.78263783,13.7096774 7.98170545,13.7096774 L0,13.7096774 L0,17 Z" id="Path"></path>
                <path d="M21.7617715,17 L29.6330035,17 L29.6330035,13.7096774 L23.8607667,13.7096774 C23.0598343,13.7096774 22.4522304,13.1064516 22.4522304,12.3112903 L22.4522304,8.22580645 L28.5282692,8.22580645 L28.5282692,4.93548387 L22.4522304,4.93548387 L22.4522304,0 L19.1380275,0 L19.1380275,4.93548387 L16.9285588,4.93548387 L16.9285588,8.22580645 L19.1380275,8.22580645 L19.1380275,14.3951613 L21.7617715,17 Z" id="Path"></path>
                <path d="M34.7003748,17 L47.4048195,17 L47.4048195,7.54032258 L44.7810755,4.93548387 L35.8051092,4.93548387 L35.8051092,8.22580645 L42.6820803,8.22580645 C43.4830127,8.22580645 44.0906165,8.8016129 44.0906165,9.59677419 L37.3241188,9.59677419 L34.7003748,12.2016129 L34.7003748,17 Z M44.0906165,13.7096774 L38.0145778,13.7096774 C38.0145778,12.9145161 38.6221817,12.3387097 39.423114,12.3387097 L44.0906165,12.3387097 L44.0906165,13.7096774 Z" id="Shape"></path>
                <path d="M53.4840994,17 L56.7983024,17 L56.7983024,8.22580645 L61.4658048,8.22580645 C62.2667372,8.22580645 62.8743411,8.82903226 62.8743411,9.62419355 L62.8743411,9.87096774 L66.1885441,9.87096774 L66.1885441,7.54032258 L63.5648001,4.93548387 L53.4840994,4.93548387 L53.4840994,17 Z" id="Path"></path>
                <path d="M75.2458709,17 L83.1171029,17 L83.1171029,13.7096774 L77.3448661,13.7096774 C76.5439337,13.7096774 75.9363298,13.1064516 75.9363298,12.3112903 L75.9363298,8.22580645 L82.0123686,8.22580645 L82.0123686,4.93548387 L75.9363298,4.93548387 L75.9363298,0 L72.6221269,0 L72.6221269,4.93548387 L70.4126582,4.93548387 L70.4126582,8.22580645 L72.6221269,8.22580645 L72.6221269,14.3951613 L75.2458709,17 Z" id="Path"></path>
                <polygon id="Path" points="93.9526229 17 97.8191931 17 97.8191931 13.1612903 93.9526229 13.1612903"></polygon>
                <path d="M110.941154,17 L118.398111,17 L121.021855,14.3951613 L121.021855,12.3387097 L117.707652,12.3387097 C117.707652,13.133871 117.100048,13.7096774 116.299116,13.7096774 L113.040149,13.7096774 C112.239217,13.7096774 111.631613,13.1064516 111.631613,12.3112903 L111.631613,9.62419355 C111.631613,8.82903226 112.239217,8.22580645 113.040149,8.22580645 L116.299116,8.22580645 C117.100048,8.22580645 117.707652,8.8016129 117.707652,9.59677419 L121.021855,9.59677419 L121.021855,7.54032258 L118.398111,4.93548387 L110.941154,4.93548387 L108.31741,7.54032258 L108.31741,14.3951613 L110.941154,17 Z" id="Path"></path>
                <path d="M126.089226,17 L129.403429,17 L129.403429,8.22580645 L134.070932,8.22580645 C134.871864,8.22580645 135.479468,8.82903226 135.479468,9.62419355 L135.479468,17 L138.793671,17 L138.793671,7.54032258 L136.169927,4.93548387 L129.403429,4.93548387 L129.403429,0 L126.089226,0 L126.089226,17 Z" id="Path"></path>
                <path d="M144.029694,17 L156.734138,17 L156.734138,7.54032258 L154.110394,4.93548387 L145.134428,4.93548387 L145.134428,8.22580645 L152.011399,8.22580645 C152.812331,8.22580645 153.419935,8.8016129 153.419935,9.59677419 L146.653438,9.59677419 L144.029694,12.2016129 L144.029694,17 Z M153.419935,13.7096774 L147.343897,13.7096774 C147.343897,12.9145161 147.9515,12.3387097 148.752433,12.3387097 L153.419935,12.3387097 L153.419935,13.7096774 Z" id="Shape"></path>
                <path d="M166.128768,17 L174,17 L174,13.7096774 L168.227763,13.7096774 C167.426831,13.7096774 166.819227,13.1064516 166.819227,12.3112903 L166.819227,8.22580645 L172.895266,8.22580645 L172.895266,4.93548387 L166.819227,4.93548387 L166.819227,0 L163.505024,0 L163.505024,4.93548387 L161.295555,4.93548387 L161.295555,8.22580645 L163.505024,8.22580645 L163.505024,14.3951613 L166.128768,17 Z" id="Path"></path>
            </g>
        </g>
    </g>
</svg>